<svg width="14" height="14" viewBox="0 0 14 14" fill="none" xmlns="http://www.w3.org/2000/svg">
<path d="M6.39456 1.39969C6.57961 1.37922 6.74894 1.28607 6.86531 1.14074C6.98168 0.995413 7.03554 0.809812 7.01507 0.624766C6.99459 0.43972 6.90144 0.270388 6.75611 0.154021C6.61079 0.0376538 6.42518 -0.0162162 6.24014 0.0042617C2.7291 0.392428 0 3.3672 0 6.98072C0 10.8575 3.14253 14 7.01928 14C10.6314 14 13.6055 11.2716 13.9957 7.76267C14.0162 7.57762 13.9623 7.39202 13.846 7.2467C13.7296 7.10137 13.5603 7.00822 13.3752 6.98774C13.1902 6.96726 13.0046 7.02113 12.8593 7.1375C12.7139 7.25387 12.6208 7.4232 12.6003 7.60825C12.4386 9.03323 11.738 10.3424 10.6419 11.2673C9.54591 12.1922 8.13758 12.6627 6.70571 12.5825C5.27383 12.5022 3.9269 11.8773 2.94109 10.8357C1.95527 9.7941 1.40527 8.41485 1.40386 6.98072C1.4039 5.59955 1.91289 4.26683 2.83355 3.23727C3.75422 2.2077 5.02199 1.5535 6.39456 1.39969Z" fill="#797878"/>
<path d="M8.96161 0.23505C8.87284 0.210162 8.78004 0.203002 8.68851 0.213978C8.59697 0.224954 8.5085 0.253852 8.42813 0.299022C8.26582 0.390246 8.1464 0.542211 8.09614 0.721486C8.04587 0.900761 8.06888 1.09266 8.16011 1.25497C8.25133 1.41728 8.4033 1.5367 8.58257 1.58696C8.78402 1.64382 8.98197 1.71191 9.17359 1.79052C9.34598 1.86098 9.5393 1.86008 9.71102 1.78801C9.88274 1.71594 10.0188 1.5786 10.0893 1.40622C10.1597 1.23383 10.1588 1.04051 10.0867 0.868792C10.0147 0.697072 9.87734 0.561015 9.70495 0.490552C9.46222 0.39155 9.21404 0.306478 8.96161 0.235752V0.23505Z" fill="#797878"/>
<path d="M10.7747 1.85117C10.9005 1.71417 11.0755 1.63271 11.2614 1.62468C11.4472 1.61665 11.6286 1.68271 11.7658 1.80835C11.9146 1.94453 12.0571 2.08702 12.1933 2.23513C12.3191 2.37233 12.3853 2.5539 12.3773 2.73991C12.3692 2.92591 12.2876 3.1011 12.1504 3.22695C12.0132 3.3528 11.8317 3.41898 11.6457 3.41095C11.4597 3.40292 11.2845 3.32133 11.1586 3.18413C11.0499 3.06555 10.9361 2.95173 10.8175 2.843C10.7495 2.78073 10.6944 2.70569 10.6554 2.62215C10.6165 2.5386 10.5943 2.4482 10.5903 2.3561C10.5862 2.264 10.6004 2.172 10.6319 2.08536C10.6634 1.99873 10.7117 1.91915 10.774 1.85117H10.7747Z" fill="#797878"/>
<path d="M6.31741 2.76904C6.50357 2.76904 6.68211 2.843 6.81374 2.97463C6.94538 3.10627 7.01933 3.28481 7.01933 3.47097V6.98061H9.12512C9.31128 6.98061 9.48982 7.05456 9.62146 7.1862C9.75309 7.31784 9.82705 7.49638 9.82705 7.68254C9.82705 7.8687 9.75309 8.04724 9.62146 8.17888C9.48982 8.31051 9.31128 8.38447 9.12512 8.38447H6.31741C6.13124 8.38447 5.95271 8.31051 5.82107 8.17888C5.68943 8.04724 5.61548 7.8687 5.61548 7.68254V3.47097C5.61548 3.28481 5.68943 3.10627 5.82107 2.97463C5.95271 2.843 6.13124 2.76904 6.31741 2.76904Z" fill="#797878"/>
<path d="M12.5925 3.90816C12.7648 3.83772 12.958 3.8386 13.1297 3.9106C13.3013 3.9826 13.4374 4.11984 13.5078 4.29212C13.6074 4.53576 13.6929 4.78488 13.764 5.03827C13.7917 5.12782 13.8012 5.22201 13.7919 5.31528C13.7826 5.40855 13.7547 5.49902 13.7098 5.58133C13.665 5.66365 13.6041 5.73615 13.5308 5.79456C13.4575 5.85298 13.3733 5.89611 13.283 5.92143C13.1928 5.94675 13.0983 5.95373 13.0054 5.94197C12.9124 5.93021 12.8227 5.89994 12.7416 5.85296C12.6604 5.80597 12.5896 5.74321 12.5331 5.66839C12.4767 5.59357 12.4358 5.5082 12.4128 5.41731C12.356 5.21566 12.2878 5.0174 12.2086 4.82348C12.1381 4.65127 12.1388 4.45812 12.2107 4.28649C12.2826 4.11485 12.4197 3.97878 12.5918 3.90816H12.5925Z" fill="#797878"/>
</svg>
