<svg width="27" height="27" viewBox="0 0 27 27" fill="none" xmlns="http://www.w3.org/2000/svg">
<path d="M12.3324 2.69941C12.6892 2.65992 13.0158 2.48027 13.2402 2.2C13.4647 1.91973 13.5686 1.56178 13.5291 1.20491C13.4896 0.848031 13.3099 0.521463 13.0296 0.29704C12.7494 0.072618 12.3914 -0.0312741 12.0346 0.008219C5.26326 0.756825 0 6.49388 0 13.4628C0 20.9394 6.0606 27 13.5372 27C20.5034 27 26.2391 21.7381 26.9918 14.9709C27.0313 14.614 26.9274 14.256 26.703 13.9758C26.4785 13.6955 26.152 13.5159 25.7951 13.4764C25.4382 13.4369 25.0803 13.5408 24.8 13.7652C24.5197 13.9896 24.3401 14.3162 24.3006 14.673C23.9888 17.4212 22.6375 19.946 20.5237 21.7298C18.41 23.5135 15.6939 24.421 12.9324 24.2662C10.171 24.1115 7.5733 22.9061 5.67209 20.8974C3.77088 18.8886 2.71017 16.2286 2.70744 13.4628C2.70751 10.7991 3.68914 8.22889 5.46471 6.2433C7.24027 4.25772 9.68526 2.99604 12.3324 2.69941Z" fill="#27B352"/>
<path d="M17.2829 0.45359C17.1117 0.405592 16.9327 0.391782 16.7562 0.412951C16.5797 0.434119 16.409 0.489851 16.254 0.576964C15.941 0.752897 15.7107 1.04597 15.6137 1.39172C15.5168 1.73746 15.5612 2.10755 15.7371 2.42058C15.9131 2.7336 16.2061 2.96391 16.5519 3.06085C16.9404 3.1705 17.3221 3.30181 17.6917 3.45343C18.0242 3.58932 18.397 3.58758 18.7282 3.44858C19.0593 3.30959 19.3217 3.04473 19.4576 2.71227C19.5935 2.37981 19.5918 2.00698 19.4528 1.67581C19.3138 1.34463 19.0489 1.08224 18.7165 0.946343C18.2483 0.755411 17.7697 0.591344 17.2829 0.454944V0.45359Z" fill="#27B352"/>
<path d="M20.7796 3.56991C21.0223 3.30569 21.3599 3.14858 21.7183 3.1331C22.0767 3.11762 22.4266 3.24502 22.6911 3.48733C22.9781 3.74995 23.2529 4.02476 23.5155 4.31039C23.7582 4.57499 23.8858 4.92517 23.8704 5.2839C23.8549 5.64262 23.6975 5.98049 23.4329 6.22319C23.1683 6.4659 22.8181 6.59355 22.4594 6.57806C22.1007 6.56257 21.7628 6.40522 21.5201 6.14062C21.3104 5.91192 21.0909 5.69241 20.8622 5.48271C20.7311 5.36264 20.6249 5.21791 20.5497 5.05679C20.4745 4.89567 20.4318 4.72132 20.424 4.54369C20.4162 4.36607 20.4435 4.18865 20.5043 4.02156C20.5651 3.85448 20.6582 3.70101 20.7783 3.56991H20.7796Z" fill="#27B352"/>
<path d="M12.1836 5.34033C12.5426 5.34033 12.8869 5.48296 13.1408 5.73683C13.3946 5.9907 13.5373 6.33502 13.5373 6.69405V13.4626H17.5984C17.9575 13.4626 18.3018 13.6053 18.5556 13.8591C18.8095 14.113 18.9521 14.4573 18.9521 14.8164C18.9521 15.1754 18.8095 15.5197 18.5556 15.7736C18.3018 16.0275 17.9575 16.1701 17.5984 16.1701H12.1836C11.8245 16.1701 11.4802 16.0275 11.2263 15.7736C10.9725 15.5197 10.8298 15.1754 10.8298 14.8164V6.69405C10.8298 6.33502 10.9725 5.9907 11.2263 5.73683C11.4802 5.48296 11.8245 5.34033 12.1836 5.34033Z" fill="#27B352"/>
<path d="M24.2858 7.5377C24.6181 7.40184 24.9907 7.40353 25.3218 7.54239C25.6528 7.68126 25.9152 7.94592 26.0511 8.27818C26.243 8.74806 26.408 9.22851 26.5452 9.71718C26.5986 9.88989 26.6168 10.0715 26.5989 10.2514C26.5809 10.4313 26.5271 10.6058 26.4407 10.7645C26.3542 10.9233 26.2368 11.0631 26.0954 11.1758C25.9541 11.2884 25.7915 11.3716 25.6175 11.4204C25.4434 11.4693 25.2614 11.4827 25.082 11.46C24.9027 11.4374 24.7297 11.379 24.5733 11.2884C24.4168 11.1978 24.2802 11.0767 24.1713 10.9324C24.0624 10.7881 23.9835 10.6235 23.9393 10.4482C23.8297 10.0593 23.6982 9.67694 23.5453 9.30295C23.4094 8.97083 23.4109 8.59833 23.5495 8.26732C23.6881 7.93631 23.9525 7.67388 24.2845 7.5377H24.2858Z" fill="#27B352"/>
</svg>
