<svg width="30" height="29" viewBox="0 0 30 29" fill="none" xmlns="http://www.w3.org/2000/svg">
<path d="M0 3.67938C0 2.70354 0.387648 1.76768 1.07766 1.07766C1.76768 0.387648 2.70354 0 3.67938 0L25.7556 0C26.7315 0 27.6673 0.387648 28.3573 1.07766C29.0474 1.76768 29.435 2.70354 29.435 3.67938V18.3969C29.435 19.3727 29.0474 20.3086 28.3573 20.9986C27.6673 21.6886 26.7315 22.0763 25.7556 22.0763H21.1564C20.8708 22.0763 20.5891 22.1428 20.3337 22.2705C20.0782 22.3982 19.856 22.5836 19.6847 22.8121L16.1893 27.4721C16.0179 27.7005 15.7957 27.886 15.5402 28.0137C15.2848 28.1414 15.0031 28.2079 14.7175 28.2079C14.4319 28.2079 14.1502 28.1414 13.8948 28.0137C13.6393 27.886 13.4171 27.7005 13.2458 27.4721L9.75035 22.8121C9.57899 22.5836 9.35678 22.3982 9.10133 22.2705C8.84588 22.1428 8.5642 22.0763 8.2786 22.0763H3.67938C2.70354 22.0763 1.76768 21.6886 1.07766 20.9986C0.387648 20.3086 0 19.3727 0 18.3969V3.67938ZM9.19844 11.0381C9.19844 10.5502 9.00462 10.0823 8.65961 9.73727C8.3146 9.39226 7.84667 9.19844 7.35875 9.19844C6.87084 9.19844 6.4029 9.39226 6.0579 9.73727C5.71289 10.0823 5.51906 10.5502 5.51906 11.0381C5.51906 11.526 5.71289 11.994 6.0579 12.339C6.4029 12.684 6.87084 12.8778 7.35875 12.8778C7.84667 12.8778 8.3146 12.684 8.65961 12.339C9.00462 11.994 9.19844 11.526 9.19844 11.0381ZM16.5572 11.0381C16.5572 10.5502 16.3634 10.0823 16.0184 9.73727C15.6734 9.39226 15.2054 9.19844 14.7175 9.19844C14.2296 9.19844 13.7617 9.39226 13.4166 9.73727C13.0716 10.0823 12.8778 10.5502 12.8778 11.0381C12.8778 11.526 13.0716 11.994 13.4166 12.339C13.7617 12.684 14.2296 12.8778 14.7175 12.8778C15.2054 12.8778 15.6734 12.684 16.0184 12.339C16.3634 11.994 16.5572 11.526 16.5572 11.0381ZM22.0763 12.8778C22.5642 12.8778 23.0321 12.684 23.3771 12.339C23.7221 11.994 23.9159 11.526 23.9159 11.0381C23.9159 10.5502 23.7221 10.0823 23.3771 9.73727C23.0321 9.39226 22.5642 9.19844 22.0763 9.19844C21.5883 9.19844 21.1204 9.39226 20.7754 9.73727C20.4304 10.0823 20.2366 10.5502 20.2366 11.0381C20.2366 11.526 20.4304 11.994 20.7754 12.339C21.1204 12.684 21.5883 12.8778 22.0763 12.8778Z" fill="#27B352"/>
</svg>
