<svg width="18" height="17" viewBox="0 0 18 17" fill="none" xmlns="http://www.w3.org/2000/svg">
<path d="M18 8.00879C18 12.358 13.9703 15.8838 9 15.8838C8.10861 15.885 7.22091 15.7693 6.35962 15.5395C5.70262 15.8725 4.194 16.5115 1.656 16.9278C1.431 16.9638 1.26 16.7298 1.34888 16.5205C1.74713 15.58 2.10713 14.3268 2.21513 13.1838C0.837 11.8 0 9.98879 0 8.00879C0 3.65954 4.02975 0.133789 9 0.133789C13.9703 0.133789 18 3.65954 18 8.00879ZM5.625 8.00879C5.625 7.71042 5.50647 7.42427 5.2955 7.21329C5.08452 7.00232 4.79837 6.88379 4.5 6.88379C4.20163 6.88379 3.91548 7.00232 3.7045 7.21329C3.49353 7.42427 3.375 7.71042 3.375 8.00879C3.375 8.30716 3.49353 8.59331 3.7045 8.80428C3.91548 9.01526 4.20163 9.13379 4.5 9.13379C4.79837 9.13379 5.08452 9.01526 5.2955 8.80428C5.50647 8.59331 5.625 8.30716 5.625 8.00879ZM10.125 8.00879C10.125 7.71042 10.0065 7.42427 9.7955 7.21329C9.58452 7.00232 9.29837 6.88379 9 6.88379C8.70163 6.88379 8.41548 7.00232 8.2045 7.21329C7.99353 7.42427 7.875 7.71042 7.875 8.00879C7.875 8.30716 7.99353 8.59331 8.2045 8.80428C8.41548 9.01526 8.70163 9.13379 9 9.13379C9.29837 9.13379 9.58452 9.01526 9.7955 8.80428C10.0065 8.59331 10.125 8.30716 10.125 8.00879ZM13.5 9.13379C13.7984 9.13379 14.0845 9.01526 14.2955 8.80428C14.5065 8.59331 14.625 8.30716 14.625 8.00879C14.625 7.71042 14.5065 7.42427 14.2955 7.21329C14.0845 7.00232 13.7984 6.88379 13.5 6.88379C13.2016 6.88379 12.9155 7.00232 12.7045 7.21329C12.4935 7.42427 12.375 7.71042 12.375 8.00879C12.375 8.30716 12.4935 8.59331 12.7045 8.80428C12.9155 9.01526 13.2016 9.13379 13.5 9.13379Z" fill="#797878"/>
</svg>
