<svg width="18" height="11" viewBox="0 0 18 11" fill="none" xmlns="http://www.w3.org/2000/svg">
<path d="M12.2143 11H1.28571C0.944722 11 0.617695 10.8841 0.376577 10.6778C0.135459 10.4715 0 10.1917 0 9.9V1.1C0 0.808262 0.135459 0.528472 0.376577 0.322183C0.617695 0.115892 0.944722 0 1.28571 0H12.2143C12.5553 0 12.8823 0.115892 13.1234 0.322183C13.3645 0.528472 13.5 0.808262 13.5 1.1V3.333L16.9843 1.2045C17.0802 1.14605 17.1931 1.11128 17.3106 1.10398C17.4281 1.09668 17.5456 1.11713 17.6504 1.1631C17.7552 1.20907 17.8433 1.2788 17.9049 1.36466C17.9666 1.45053 17.9995 1.54923 18 1.65V9.35C17.9995 9.45077 17.9666 9.54947 17.9049 9.63534C17.8433 9.7212 17.7552 9.79093 17.6504 9.8369C17.5456 9.88287 17.4281 9.90332 17.3106 9.89602C17.1931 9.88872 17.0802 9.85395 16.9843 9.7955L13.5 7.667V9.9C13.5 10.1917 13.3645 10.4715 13.1234 10.6778C12.8823 10.8841 12.5553 11 12.2143 11Z" fill="#434141"/>
</svg>
