<svg width="19" height="19" viewBox="0 0 19 19" fill="none" xmlns="http://www.w3.org/2000/svg">
<path d="M9.5 19C12.0196 19 14.4359 17.9991 16.2175 16.2175C17.9991 14.4359 19 12.0196 19 9.5C19 6.98044 17.9991 4.56408 16.2175 2.78249C14.4359 1.00089 12.0196 0 9.5 0C6.98044 0 4.56408 1.00089 2.78249 2.78249C1.00089 4.56408 0 6.98044 0 9.5C0 12.0196 1.00089 14.4359 2.78249 16.2175C4.56408 17.9991 6.98044 19 9.5 19ZM8.3125 7.71875C8.3125 8.31369 8.11775 8.189 7.81969 7.99781C7.62375 7.87194 7.38387 7.71875 7.125 7.71875C6.86613 7.71875 6.62625 7.87313 6.43031 7.99781C6.13225 8.189 5.9375 8.3125 5.9375 7.71875C5.9375 6.7355 6.4695 5.9375 7.125 5.9375C7.7805 5.9375 8.3125 6.7355 8.3125 7.71875ZM14.6431 11.2812C14.7473 11.4618 14.8022 11.6666 14.8022 11.875C14.8022 12.0834 14.7473 12.2882 14.6431 12.4688C14.122 13.3717 13.3724 14.1214 12.4695 14.6426C11.5667 15.1638 10.5425 15.4379 9.5 15.4375C8.45773 15.4377 7.43378 15.1635 6.53115 14.6423C5.62852 14.1212 4.87905 13.3715 4.35813 12.4688C4.25395 12.2883 4.19908 12.0837 4.19903 11.8753C4.19898 11.667 4.25374 11.4623 4.35782 11.2818C4.4619 11.1013 4.61164 10.9514 4.79199 10.8471C4.97234 10.7427 5.17697 10.6877 5.38531 10.6875H13.6147C13.8231 10.6875 14.0279 10.7424 14.2084 10.8466C14.3889 10.9508 14.5388 11.1007 14.6431 11.2812ZM12.5697 7.99781C12.3737 7.87194 12.1339 7.71875 11.875 7.71875C11.6161 7.71875 11.3763 7.87313 11.1803 7.99781C10.8822 8.189 10.6875 8.3125 10.6875 7.71875C10.6875 6.7355 11.2195 5.9375 11.875 5.9375C12.5305 5.9375 13.0625 6.7355 13.0625 7.71875C13.0625 8.31369 12.8678 8.189 12.5697 7.99781Z" fill="#FFD233"/>
</svg>
