<svg width="36" height="34" viewBox="0 0 36 34" fill="none" xmlns="http://www.w3.org/2000/svg">
<path d="M32.7083 14.2256H31.5V14.1668H18V19.8335H26.4773C25.2405 23.1322 21.9172 25.5002 18 25.5002C13.0297 25.5002 9 21.6943 9 17.0002C9 12.306 13.0297 8.50016 18 8.50016C20.2943 8.50016 22.3815 9.31758 23.9708 10.6528L28.2135 6.64575C25.5345 4.2877 21.951 2.8335 18 2.8335C9.71625 2.8335 3 9.17662 3 17.0002C3 24.8237 9.71625 31.1668 18 31.1668C26.2838 31.1668 33 24.8237 33 17.0002C33 16.0503 32.8965 15.1231 32.7083 14.2256Z" fill="#FFC107"/>
<path d="M4.72949 10.4063L9.65774 13.8197C10.9912 10.7017 14.2207 8.50016 18 8.50016C20.2942 8.50016 22.3815 9.31758 23.9707 10.6528L28.2135 6.64575C25.5345 4.2877 21.951 2.8335 18 2.8335C12.2385 2.8335 7.24199 5.90554 4.72949 10.4063Z" fill="#FF3D00"/>
<path d="M18 31.1667C21.8745 31.1667 25.395 29.7663 28.0567 27.489L23.4142 23.7787C21.8576 24.8968 19.9556 25.5015 18 25.5C14.0985 25.5 10.7857 23.1505 9.53774 19.8716L4.64624 23.431C7.12874 28.0188 12.1702 31.1667 18 31.1667Z" fill="#4CAF50"/>
<path d="M32.7083 14.2253H31.5V14.1665H18V19.8332H26.4773C25.8857 21.4031 24.82 22.775 23.412 23.7793L23.4142 23.7779L28.0568 27.4881C27.7283 27.77 33 24.0832 33 16.9998C33 16.05 32.8965 15.1228 32.7083 14.2253Z" fill="#1976D2"/>
</svg>
