<svg width="22" height="21" viewBox="0 0 22 21" fill="none" xmlns="http://www.w3.org/2000/svg">
<path d="M0.782471 2.65219C0.782471 1.94878 1.0619 1.27419 1.55928 0.776808C2.05666 0.279426 2.73125 0 3.43466 0L19.3478 0C20.0512 0 20.7258 0.279426 21.2232 0.776808C21.7205 1.27419 22 1.94878 22 2.65219V13.2609C22 13.9643 21.7205 14.6389 21.2232 15.1363C20.7258 15.6337 20.0512 15.9131 19.3478 15.9131H16.0326C15.8267 15.9131 15.6236 15.9611 15.4395 16.0531C15.2554 16.1452 15.0952 16.2789 14.9717 16.4436L12.4521 19.8026C12.3286 19.9673 12.1684 20.1009 11.9843 20.193C11.8001 20.2851 11.5971 20.333 11.3912 20.333C11.1854 20.333 10.9823 20.2851 10.7982 20.193C10.614 20.1009 10.4539 19.9673 10.3303 19.8026L7.81077 16.4436C7.68725 16.2789 7.52708 16.1452 7.34294 16.0531C7.15881 15.9611 6.95576 15.9131 6.74989 15.9131H3.43466C2.73125 15.9131 2.05666 15.6337 1.55928 15.1363C1.0619 14.6389 0.782471 13.9643 0.782471 13.2609V2.65219ZM7.41294 7.95656C7.41294 7.60486 7.27323 7.26757 7.02454 7.01887C6.77585 6.77018 6.43855 6.63047 6.08685 6.63047C5.73514 6.63047 5.39785 6.77018 5.14916 7.01887C4.90047 7.26757 4.76075 7.60486 4.76075 7.95656C4.76075 8.30827 4.90047 8.64556 5.14916 8.89425C5.39785 9.14295 5.73514 9.28266 6.08685 9.28266C6.43855 9.28266 6.77585 9.14295 7.02454 8.89425C7.27323 8.64556 7.41294 8.30827 7.41294 7.95656ZM12.7173 7.95656C12.7173 7.60486 12.5776 7.26757 12.3289 7.01887C12.0802 6.77018 11.7429 6.63047 11.3912 6.63047C11.0395 6.63047 10.7022 6.77018 10.4535 7.01887C10.2048 7.26757 10.0651 7.60486 10.0651 7.95656C10.0651 8.30827 10.2048 8.64556 10.4535 8.89425C10.7022 9.14295 11.0395 9.28266 11.3912 9.28266C11.7429 9.28266 12.0802 9.14295 12.3289 8.89425C12.5776 8.64556 12.7173 8.30827 12.7173 7.95656ZM16.6956 9.28266C17.0473 9.28266 17.3846 9.14295 17.6333 8.89425C17.882 8.64556 18.0217 8.30827 18.0217 7.95656C18.0217 7.60486 17.882 7.26757 17.6333 7.01887C17.3846 6.77018 17.0473 6.63047 16.6956 6.63047C16.3439 6.63047 16.0066 6.77018 15.7579 7.01887C15.5092 7.26757 15.3695 7.60486 15.3695 7.95656C15.3695 8.30827 15.5092 8.64556 15.7579 8.89425C16.0066 9.14295 16.3439 9.28266 16.6956 9.28266Z" fill="#797878"/>
</svg>
