<svg width="14" height="17" viewBox="0 0 14 17" fill="none" xmlns="http://www.w3.org/2000/svg">
<path d="M8.41823 0.0374744C7.81701 -0.130555 7.34365 0.297032 7.18043 0.712323L7.0036 1.16313C5.6393 4.6412 4.39401 7.816 1.14649 9.4676C0.397685 9.84874 -0.12396 10.6725 0.0256647 11.5748L0.308591 13.2804C0.387816 13.7584 0.600427 14.204 0.921736 14.5655C1.24304 14.927 1.65987 15.1896 2.12381 15.3227L7.35386 16.8226C7.96243 16.9972 8.60038 17.0436 9.22764 16.9588C9.8549 16.8739 10.4579 16.6597 10.9988 16.3296C11.5397 15.9996 12.0068 15.5607 12.3708 15.0407C12.7347 14.5206 12.9877 13.9306 13.1137 13.3077L13.9489 9.17799C14.0242 8.80594 14.0162 8.42173 13.9255 8.05317C13.8348 7.6846 13.6636 7.3409 13.4244 7.04692C13.1852 6.75294 12.8839 6.51604 12.5424 6.35337C12.2008 6.1907 11.8275 6.10632 11.4495 6.10633H9.97568C10.2103 5.07903 10.3185 3.90898 10.2117 2.87553C10.0859 1.66654 9.62747 0.376265 8.41823 0.0374744Z" fill="#27B352"/>
</svg>
