<svg width="29" height="25" viewBox="0 0 29 25" fill="none" xmlns="http://www.w3.org/2000/svg">
<path d="M23.6842 22.3333H2.63158V6.33333C2.63158 5.6 2.03947 5 1.31579 5C0.592105 5 0 5.6 0 6.33333V22.3333C0 23.8 1.18421 25 2.63158 25H23.6842C24.4079 25 25 24.4 25 23.6667C25 22.9333 24.4079 22.3333 23.6842 22.3333Z" fill="#27B352"/>
<path d="M26.3333 2.66667H17L15.12 0.786667C14.6133 0.28 13.9333 0 13.2267 0H7.66667C6.2 0 5.01333 1.2 5.01333 2.66667L5 17.3333C5 18.8 6.2 20 7.66667 20H26.3333C27.8 20 29 18.8 29 17.3333V5.33333C29 3.86667 27.8 2.66667 26.3333 2.66667ZM22.3333 14.6667H11.6667C11.5429 14.6667 11.4215 14.6322 11.3162 14.5671C11.2109 14.502 11.1258 14.4089 11.0704 14.2981C11.015 14.1874 10.9916 14.0634 11.0027 13.9401C11.0138 13.8168 11.059 13.699 11.1333 13.6L12.9733 11.16C13.24 10.8 13.7733 10.8 14.04 11.16L15.6667 13.3333L18.6267 9.37333C18.8933 9.01333 19.4267 9.01333 19.6933 9.37333L22.8667 13.6C22.941 13.699 22.9862 13.8168 22.9973 13.9401C23.0084 14.0634 22.985 14.1874 22.9296 14.2981C22.8743 14.4089 22.7891 14.502 22.6838 14.5671C22.5785 14.6322 22.4571 14.6667 22.3333 14.6667Z" fill="#27B352"/>
</svg>
