<svg width="13" height="14" viewBox="0 0 13 14" fill="none" xmlns="http://www.w3.org/2000/svg">
<path d="M6.08288 13.541C6.33919 13.5351 6.58516 13.4387 6.77727 13.2689C6.96938 13.0992 7.09526 12.8669 7.13264 12.6133H4.99243C5.03087 12.8738 5.16264 13.1115 5.36323 13.2822C5.56381 13.4528 5.81956 13.5448 6.08288 13.541Z" fill="#797878"/>
<path d="M12.1252 11.0389L11.9868 10.9168C11.5944 10.5671 11.2508 10.1661 10.9655 9.72464C10.654 9.11535 10.4672 8.44996 10.4162 7.76752V5.75751C10.4146 5.51336 10.3928 5.26976 10.3511 5.02919C9.66193 4.88753 9.04284 4.51205 8.59869 3.96632C8.15455 3.42059 7.91263 2.73814 7.91391 2.03452V1.77818C7.48909 1.56912 7.03266 1.43164 6.56305 1.3713V0.858621C6.56305 0.714557 6.50582 0.576395 6.40395 0.474527C6.30208 0.372659 6.16392 0.31543 6.01986 0.31543C5.87579 0.31543 5.73763 0.372659 5.63576 0.474527C5.5339 0.576395 5.47667 0.714557 5.47667 0.858621V1.39164C4.42516 1.53997 3.46282 2.06371 2.76731 2.86616C2.0718 3.66862 1.69009 4.6956 1.69264 5.75751V7.76752C1.64168 8.44996 1.45493 9.11535 1.14335 9.72464C0.862954 10.165 0.52496 10.566 0.138341 10.9168L0 11.0389V12.1863H12.1252V11.0389Z" fill="#797878"/>
<path d="M10.9656 4.06885C12.0892 4.06885 13 3.158 13 2.03442C13 0.910842 12.0892 0 10.9656 0C9.84199 0 8.93115 0.910842 8.93115 2.03442C8.93115 3.158 9.84199 4.06885 10.9656 4.06885Z" fill="#797878"/>
</svg>
