<svg width="16" height="16" viewBox="0 0 16 16" fill="none" xmlns="http://www.w3.org/2000/svg">
<path d="M13.5758 6.06065C13.0152 6.06199 12.4619 5.93336 11.9594 5.68486C11.4569 5.43636 11.0189 5.07475 10.6797 4.62843C10.3405 4.18211 10.1093 3.66323 10.0044 3.11254C9.89956 2.56186 9.92376 1.99435 10.0752 1.45459H0.969697C0.712517 1.45459 0.465871 1.55675 0.284018 1.73861C0.102164 1.92046 0 2.16711 0 2.42429V14.0607C0 14.3178 0.102164 14.5645 0.284018 14.7463C0.465871 14.9282 0.712517 15.0303 0.969697 15.0303H14.5455C14.8026 15.0303 15.0493 14.9282 15.2311 14.7463C15.413 14.5645 15.5152 14.3178 15.5152 14.0607V5.49823C14.9352 5.86601 14.2625 6.06109 13.5758 6.06065ZM3.35515 3.39398C3.64283 3.39398 3.92406 3.47929 4.16325 3.63912C4.40245 3.79895 4.58889 4.02612 4.69898 4.2919C4.80907 4.55768 4.83787 4.85014 4.78175 5.1323C4.72562 5.41445 4.58709 5.67363 4.38367 5.87705C4.18025 6.08047 3.92107 6.219 3.63892 6.27513C3.35677 6.33125 3.0643 6.30245 2.79852 6.19235C2.53274 6.08226 2.30557 5.89583 2.14574 5.65663C1.98591 5.41743 1.90061 5.13621 1.90061 4.84853C1.90061 4.46276 2.05385 4.09279 2.32663 3.82001C2.59941 3.54723 2.96938 3.39398 3.35515 3.39398ZM1.93939 12.6061V10.6182L4.84848 7.67035C4.93933 7.58004 5.06221 7.52936 5.1903 7.52936C5.31839 7.52936 5.44128 7.58004 5.53212 7.67035L6.78788 8.89701L3.06424 12.6061H1.93939ZM13.5758 12.6061H4.43636L7.45697 9.5855L10.0752 6.96732C10.166 6.87701 10.2889 6.82633 10.417 6.82633C10.5451 6.82633 10.6679 6.87701 10.7588 6.96732L13.5758 9.78429V12.6061Z" fill="#413D3D"/>
<path d="M13.5758 4.84848C14.9147 4.84848 16 3.76311 16 2.42424C16 1.08537 14.9147 0 13.5758 0C12.2369 0 11.1516 1.08537 11.1516 2.42424C11.1516 3.76311 12.2369 4.84848 13.5758 4.84848Z" fill="#413D3D"/>
</svg>
