<svg width="19" height="19" viewBox="0 0 19 19" fill="none" xmlns="http://www.w3.org/2000/svg">
<path d="M19 17.758C19 17.9063 18.9165 18.0423 18.7495 18.1659C18.5825 18.2894 18.3258 18.3914 17.9795 18.4717C17.6331 18.552 17.2775 18.6262 16.9126 18.6941C16.5477 18.7621 16.0807 18.8146 15.5117 18.8517C14.9427 18.8888 14.4479 18.9166 14.0273 18.9351C13.6068 18.9537 13.0656 18.9691 12.4038 18.9815C11.742 18.9938 11.241 19 10.9009 19H8.09912L6.59619 18.9815L4.97266 18.9351L3.48828 18.8517L2.0874 18.6941L1.02051 18.4717L0.250488 18.1659L0 17.758C0.0247396 16.6706 0.705078 15.7098 2.04102 14.8756C3.37695 14.0415 5.07161 13.4885 7.125 13.2166V12.6049C6.48177 12.3207 5.92513 11.919 5.45508 11.4C4.98503 10.881 4.61393 10.2724 4.3418 9.57415C4.06966 8.87593 3.87174 8.12829 3.74805 7.33122C3.62435 6.53415 3.5625 5.67219 3.5625 4.74537C3.5625 3.95447 3.71712 3.25008 4.02637 2.63219C4.33561 2.01431 4.76237 1.51691 5.30664 1.14C5.85091 0.763089 6.47559 0.478862 7.18066 0.287317C7.88574 0.0957724 8.65885 0 9.5 0C10.3411 0 11.1143 0.0957724 11.8193 0.287317C12.5244 0.478862 13.1491 0.763089 13.6934 1.14C14.2376 1.51691 14.6644 2.01431 14.9736 2.63219C15.2829 3.25008 15.4375 3.95447 15.4375 4.74537C15.4375 9.07057 14.25 11.7028 11.875 12.642V13.2166C13.9284 13.4885 15.623 14.0415 16.959 14.8756C18.2949 15.7098 18.9753 16.6706 19 17.758Z" fill="#797878"/>
</svg>
