<svg width="17" height="11" viewBox="0 0 17 11" fill="none" xmlns="http://www.w3.org/2000/svg">
<path d="M11.5357 11H1.21429C0.892237 11 0.583379 10.8841 0.355656 10.6778C0.127933 10.4715 0 10.1917 0 9.9V1.1C0 0.808262 0.127933 0.528472 0.355656 0.322183C0.583379 0.115892 0.892237 0 1.21429 0H11.5357C11.8578 0 12.1666 0.115892 12.3943 0.322183C12.6221 0.528472 12.75 0.808262 12.75 1.1V3.333L16.0407 1.2045C16.1313 1.14605 16.2379 1.11128 16.3489 1.10398C16.4598 1.09668 16.5709 1.11713 16.6698 1.1631C16.7688 1.20907 16.852 1.2788 16.9102 1.36466C16.9684 1.45053 16.9995 1.54923 17 1.65V9.35C16.9995 9.45077 16.9684 9.54947 16.9102 9.63534C16.852 9.7212 16.7688 9.79093 16.6698 9.8369C16.5709 9.88287 16.4598 9.90332 16.3489 9.89602C16.2379 9.88872 16.1313 9.85395 16.0407 9.7955L12.75 7.667V9.9C12.75 10.1917 12.6221 10.4715 12.3943 10.6778C12.1666 10.8841 11.8578 11 11.5357 11Z" fill="#F44336"/>
</svg>
