<svg width="20" height="20" viewBox="0 0 20 20" fill="none" xmlns="http://www.w3.org/2000/svg">
<path d="M17.2303 15.2695C16.7815 14.8395 16.3446 14.3972 15.9203 13.9431C15.5638 13.5809 15.3491 13.3173 15.3491 13.3173L12.6658 12.036C13.7401 10.8177 14.333 9.2492 14.3333 7.62484C14.3333 3.92663 11.3241 0.916504 7.62496 0.916504C3.92579 0.916504 0.916626 3.92663 0.916626 7.62484C0.916626 11.323 3.92579 14.3332 7.62496 14.3332C9.3145 14.3332 10.8545 13.7007 12.0362 12.6666L13.3175 15.35C13.3175 15.35 13.581 15.5646 13.9433 15.9211C14.3141 16.269 14.8019 16.7395 15.2696 17.2312L16.571 18.5652L17.1498 19.1843L19.1825 17.1516L18.5634 16.5728C18.2002 16.2163 17.7153 15.7429 17.2303 15.2695ZM7.62496 12.4165C4.98283 12.4165 2.83329 10.267 2.83329 7.62484C2.83329 4.98271 4.98283 2.83317 7.62496 2.83317C10.2671 2.83317 12.4166 4.98271 12.4166 7.62484C12.4166 10.267 10.2671 12.4165 7.62496 12.4165Z" fill="#656060"/>
</svg>
