<svg width="12" height="13" viewBox="0 0 12 13" fill="none" xmlns="http://www.w3.org/2000/svg">
<path d="M6.0023 8.26996C5.57892 8.26996 5.18244 8.10141 4.88225 7.79339C4.58347 7.48537 4.4178 7.07855 4.4178 6.64412C4.4178 6.20969 4.58347 5.80287 4.88225 5.49484C5.18244 5.18827 5.57892 5.01828 6.0023 5.01828C6.42569 5.01828 6.82217 5.18827 7.12236 5.49484C7.42114 5.80287 7.58681 6.20969 7.58681 6.64412C7.58681 7.07855 7.42114 7.48537 7.12236 7.79339C6.97574 7.945 6.80122 8.06519 6.60894 8.14701C6.41666 8.22882 6.21046 8.27061 6.0023 8.26996ZM11.8405 4.84828L10.9144 5.66048C10.9583 5.93653 10.981 6.21841 10.981 6.49882C10.981 6.77924 10.9583 7.06256 10.9144 7.33717L11.8405 8.14936C11.9104 8.21081 11.9605 8.29266 11.984 8.38401C12.0075 8.47537 12.0034 8.57191 11.9722 8.6608L11.9594 8.69857C11.7046 9.42985 11.3227 10.1077 10.8323 10.6993L10.8068 10.7298C10.7472 10.8016 10.6679 10.8533 10.5792 10.8779C10.4904 10.9026 10.3965 10.899 10.3098 10.8678L9.15999 10.4479C8.73519 10.8053 8.26224 11.0872 7.74965 11.2834L7.52734 12.5169C7.51056 12.6098 7.46663 12.6953 7.40138 12.762C7.33612 12.8287 7.25264 12.8735 7.16201 12.8903L7.12378 12.8976C6.38746 13.0341 5.61149 13.0341 4.87517 12.8976L4.83693 12.8903C4.74631 12.8735 4.66282 12.8287 4.59756 12.762C4.53231 12.6953 4.48838 12.6098 4.47161 12.5169L4.24788 11.2775C3.74014 11.0798 3.26715 10.7986 2.84745 10.445L1.68916 10.8678C1.60246 10.8993 1.50847 10.9029 1.41969 10.8783C1.33091 10.8536 1.25155 10.8018 1.19215 10.7298L1.16666 10.6993C0.677137 10.1071 0.295353 9.42939 0.0395221 8.69857L0.0267781 8.6608C-0.0369419 8.47918 0.0154501 8.27577 0.158466 8.14936L1.09586 7.32845C1.05196 7.0553 1.03072 6.77633 1.03072 6.50028C1.03072 6.22131 1.05196 5.94235 1.09586 5.6721L0.161298 4.85119C0.0913417 4.78974 0.0412729 4.70789 0.0177496 4.61654C-0.00577364 4.52518 -0.00163684 4.42864 0.0296101 4.33976L0.0423541 4.30198C0.29865 3.57115 0.676723 2.89553 1.16949 2.30128L1.19498 2.27077C1.25453 2.19892 1.33389 2.14728 1.42262 2.12264C1.51134 2.098 1.60526 2.10152 1.692 2.13274L2.85028 2.55554C3.27225 2.19957 3.74237 1.9177 4.25071 1.72301L4.47444 0.483653C4.49121 0.390727 4.53514 0.305236 4.6004 0.238539C4.66565 0.171843 4.74914 0.127097 4.83977 0.110248L4.878 0.102983C5.62156 -0.0343275 6.38304 -0.0343275 7.12661 0.102983L7.16484 0.110248C7.25547 0.127097 7.33896 0.171843 7.40421 0.238539C7.46946 0.305236 7.5134 0.390727 7.53017 0.483653L7.75248 1.7172C8.26507 1.9148 8.73802 2.19522 9.16282 2.55264L10.3126 2.13274C10.3993 2.10127 10.4933 2.09762 10.5821 2.12228C10.6709 2.14693 10.7502 2.19872 10.8096 2.27077L10.8351 2.30128C11.3279 2.89844 11.706 3.57115 11.9623 4.30198L11.975 4.33976C12.0359 4.51992 11.9835 4.72188 11.8405 4.84828ZM6.0023 4.08985C4.62737 4.08985 3.51297 5.23331 3.51297 6.64412C3.51297 8.05492 4.62737 9.19838 6.0023 9.19838C7.37724 9.19838 8.49163 8.05492 8.49163 6.64412C8.49163 5.23331 7.37724 4.08985 6.0023 4.08985Z" fill="#797878"/>
</svg>
