<svg width="15" height="14" viewBox="0 0 15 14" fill="none" xmlns="http://www.w3.org/2000/svg">
<path d="M8 0.49981C7.99997 0.427739 7.98436 0.356526 7.95425 0.29105C7.92413 0.225574 7.88021 0.167383 7.8255 0.120465C7.7708 0.0735461 7.70659 0.0390086 7.63729 0.0192189C7.56799 -0.000570789 7.49523 -0.00514498 7.424 0.00580978L0.424 1.07581C0.305983 1.09396 0.198357 1.15374 0.120589 1.24435C0.0428205 1.33496 4.54341e-05 1.45041 0 1.56981V12.4298C4.54341e-05 12.5492 0.0428205 12.6647 0.120589 12.7553C0.198357 12.8459 0.305983 12.9057 0.424 12.9238L7.424 13.9948C7.49523 14.0058 7.56799 14.0012 7.63729 13.9814C7.70659 13.9616 7.7708 13.9271 7.8255 13.8802C7.88021 13.8332 7.92413 13.775 7.95425 13.7096C7.98436 13.6441 7.99997 13.5729 8 13.5008V6.99981H13.172L12.175 7.87381C12.0812 7.96264 12.0254 8.08436 12.0193 8.21344C12.0132 8.34251 12.0573 8.46893 12.1424 8.56618C12.2275 8.66342 12.347 8.72395 12.4757 8.73507C12.6045 8.74619 12.7325 8.70703 12.833 8.62581L14.829 6.87581C14.8825 6.82888 14.9254 6.77106 14.9548 6.70622C14.9842 6.64137 14.9994 6.571 14.9994 6.49981C14.9994 6.42862 14.9842 6.35824 14.9548 6.2934C14.9254 6.22856 14.8825 6.17074 14.829 6.12381L12.833 4.37381C12.7333 4.28655 12.603 4.24249 12.4708 4.2513C12.3386 4.26011 12.2153 4.32109 12.128 4.42081C12.0407 4.52053 11.9967 4.65083 12.0055 4.78304C12.0143 4.91526 12.0753 5.03855 12.175 5.12581L13.172 5.99981H8V0.49981ZM5.5 8.24981C5.30109 8.24981 5.11032 8.17079 4.96967 8.03014C4.82902 7.88949 4.75 7.69872 4.75 7.49981C4.75 7.3009 4.82902 7.11013 4.96967 6.96948C5.11032 6.82883 5.30109 6.74981 5.5 6.74981C5.69891 6.74981 5.88968 6.82883 6.03033 6.96948C6.17098 7.11013 6.25 7.3009 6.25 7.49981C6.25 7.69872 6.17098 7.88949 6.03033 8.03014C5.88968 8.17079 5.69891 8.24981 5.5 8.24981Z" fill="#797878"/>
<path d="M9.5 13H9V8H10V12.5C10 12.6326 9.94732 12.7598 9.85355 12.8536C9.75979 12.9473 9.63261 13 9.5 13Z" fill="#797878"/>
<path d="M9 5V1H9.5C9.63261 1 9.75979 1.05268 9.85355 1.14645C9.94732 1.24021 10 1.36739 10 1.5V5H9Z" fill="#797878"/>
</svg>
