<svg width="18" height="18" viewBox="0 0 18 18" fill="none" xmlns="http://www.w3.org/2000/svg">
<path d="M9.93909 0.55019C9.58702 0.198013 9.10948 0.000106353 8.6115 0H1.87778C1.37976 0 0.902141 0.197837 0.549989 0.549989C0.197837 0.902141 0 1.37976 0 1.87778V8.6115C0.000106353 9.10948 0.198013 9.58702 0.55019 9.93909L8.06131 17.4502C8.41345 17.8022 8.89098 18 9.3889 18C9.88682 18 10.3644 17.8022 10.7165 17.4502L17.4502 10.7165C17.8022 10.3644 18 9.88682 18 9.3889C18 8.89098 17.8022 8.41345 17.4502 8.06131L9.93909 0.55019ZM4.69445 6.57223C4.19631 6.57211 3.71862 6.3741 3.36646 6.02177C3.01431 5.66944 2.81655 5.19165 2.81667 4.69351C2.81679 4.19537 3.0148 3.71768 3.36713 3.36553C3.71946 3.01337 4.19725 2.81561 4.69539 2.81573C5.19353 2.81586 5.67122 3.01386 6.02337 3.36619C6.37553 3.71852 6.57329 4.19631 6.57317 4.69445C6.57305 5.19259 6.37504 5.67028 6.02271 6.02244C5.67038 6.37459 5.19259 6.57235 4.69445 6.57223Z" fill="#413D3D"/>
</svg>
