<svg width="14" height="23" viewBox="0 0 14 23" fill="none" xmlns="http://www.w3.org/2000/svg">
<path d="M2.92301 23C3.47301 23 3.92301 22.55 3.92301 22C3.92301 21.45 3.47301 21 2.92301 21C2.37301 21 1.92301 21.45 1.92301 22C1.92301 22.55 2.37301 23 2.92301 23ZM6.92301 23C7.47301 23 7.92301 22.55 7.92301 22C7.92301 21.45 7.47301 21 6.92301 21C6.37301 21 5.92301 21.45 5.92301 22C5.92301 22.55 6.37301 23 6.92301 23ZM10.923 23C11.473 23 11.923 22.55 11.923 22C11.923 21.45 11.473 21 10.923 21C10.373 21 9.92301 21.45 9.92301 22C9.92301 22.55 10.373 23 10.923 23ZM3.92301 9V3C3.92301 1.34 5.26301 0 6.92301 0C8.58301 0 9.92301 1.34 9.92301 3V9C9.92301 10.66 8.58301 12 6.92301 12C5.26301 12 3.92301 10.66 3.92301 9ZM12.833 9C13.443 9 13.923 9.54 13.833 10.14C13.343 13.14 10.943 15.48 7.92301 15.92V18C7.92301 18.55 7.47301 19 6.92301 19C6.37301 19 5.92301 18.55 5.92301 18V15.92C2.90301 15.48 0.503013 13.14 0.0130135 10.14C-0.0869865 9.54 0.403013 9 1.01301 9C1.50301 9 1.91301 9.36 1.99301 9.85C2.40301 12.21 4.45301 14 6.92301 14C9.39301 14 11.443 12.21 11.853 9.85C11.933 9.36 12.343 9 12.833 9Z" fill="#656060"/>
</svg>
